<svg width="24" height="24" viewBox="0 0 24 24" xmlns="http://www.w3.org/2000/svg">
<path d="M21.76 18.51L12.87 2.50998C12.52 1.87998 11.48 1.87998 11.13 2.50998L2.23999 18.51C2.06999 18.82 2.06999 19.2 2.24999 19.51C2.42999 19.81 2.75999 20 3.10999 20H20.89C21.24 20 21.57 19.81 21.75 19.51C21.93 19.2 21.93 18.82 21.76 18.51Z" fill="#FEC941"/>
<path fill-rule="evenodd" clip-rule="evenodd" d="M13 13C13 13.55 12.55 14 12 14C11.45 14 11 13.55 11 13V10C11 9.45 11.45 9 12 9C12.55 9 13 9.45 13 10V13ZM12 17C11.45 17 11 16.55 11 16C11 15.45 11.45 15 12 15C12.55 15 13 15.45 13 16C13 16.55 12.55 17 12 17Z" fill="#0D1C3D"/>
</svg>
