<svg width="123" height="114" viewBox="0 0 123 114" fill="none" xmlns="http://www.w3.org/2000/svg">
<path d="M118.996 1.96625H3.92874C2.84399 1.96625 1.96463 2.85509 1.96463 3.95152V109.858C1.96463 110.954 2.84399 111.843 3.92874 111.843H118.996C120.081 111.843 120.96 110.954 120.96 109.858V3.95152C120.96 2.85509 120.081 1.96625 118.996 1.96625Z" fill="white" stroke="#017AB4" stroke-width="2.65" stroke-miterlimit="10"/>
<path d="M120.96 20.774V5.50609C120.96 5.04123 120.869 4.58091 120.694 4.15144C120.518 3.72196 120.26 3.33175 119.935 3.00304C119.61 2.67434 119.224 2.41359 118.8 2.2357C118.375 2.05781 117.92 1.96625 117.461 1.96625H4.46764C3.54177 1.96958 2.65493 2.34397 2.0014 3.00746C1.34788 3.67095 0.980936 4.56944 0.980942 5.50609V20.774H120.96Z" fill="#017AB4"/>
<path d="M110.928 27.7234H10.3328V83.6275H110.928V27.7234Z" fill="white"/>
<path d="M108.478 30.7314H53.7936V44.6949H108.478V30.7314Z" fill="#E5E6E6"/>
<path d="M94.8166 86.4978H13.0956V100.461H94.8166V86.4978Z" fill="#E5E6E6"/>
<path d="M108.478 44.6949H12.7828V86.5854H108.478V44.6949Z" fill="#E5E6E6"/>
<path d="M108.478 30.7314H12.7828V100.561H108.478V30.7314Z" stroke="#CFD2D3" stroke-width="0.97" stroke-miterlimit="10"/>
<path d="M26.4575 100.549V30.7314" stroke="#CFD2D3" stroke-width="0.97" stroke-miterlimit="10"/>
<path d="M40.1191 100.549V30.7314" stroke="#CFD2D3" stroke-width="0.97" stroke-miterlimit="10"/>
<path d="M53.7936 100.549V30.7314" stroke="#CFD2D3" stroke-width="0.97" stroke-miterlimit="10"/>
<path d="M81.1418 100.549V30.7316" stroke="#CFD2D3" stroke-width="0.97" stroke-miterlimit="10"/>
<path d="M94.804 100.549V30.7314" stroke="#CFD2D3" stroke-width="0.97" stroke-miterlimit="10"/>
<path d="M108.478 100.549V30.7314" stroke="#CFD2D3" stroke-width="0.97" stroke-miterlimit="10"/>
<path d="M67.4677 100.549V30.7314" stroke="#CFD2D3" stroke-width="0.97" stroke-miterlimit="10"/>
<path d="M12.7828 100.549V30.7314" stroke="#CFD2D3" stroke-width="0.97" stroke-miterlimit="10"/>
<path d="M12.7828 44.6949H108.478" stroke="#CFD2D3" stroke-width="0.97" stroke-miterlimit="10"/>
<path d="M12.7828 58.6582H108.478" stroke="#CFD2D3" stroke-width="0.97" stroke-miterlimit="10"/>
<path d="M12.7828 72.622H108.478" stroke="#CFD2D3" stroke-width="0.97" stroke-miterlimit="10"/>
<path d="M12.7828 86.5854H108.478" stroke="#CFD2D3" stroke-width="0.97" stroke-miterlimit="10"/>
<path d="M12.7828 100.549H108.478" stroke="#CFD2D3" stroke-width="0.97" stroke-miterlimit="10"/>
<path d="M83.5048 56.0888L92.4044 47.1642" stroke="#BB1654" stroke-width="1.5" stroke-miterlimit="10"/>
<path d="M92.4044 56.0888L83.5048 47.1642" stroke="#BB1654" stroke-width="1.5" stroke-miterlimit="10"/>
<path d="M83.5046 84.1036L92.4043 75.1915" stroke="#BB1654" stroke-width="1.5" stroke-miterlimit="10"/>
<path d="M92.4043 84.1036L83.5046 75.1915" stroke="#BB1654" stroke-width="1.5" stroke-miterlimit="10"/>
<path d="M28.807 70.0396L37.7066 61.1275" stroke="#BB1654" stroke-width="1.5" stroke-miterlimit="10"/>
<path d="M37.7066 70.0396L28.807 61.1275" stroke="#BB1654" stroke-width="1.5" stroke-miterlimit="10"/>
</svg>
