<svg width="90" height="114" viewBox="0 0 90 114" fill="none" xmlns="http://www.w3.org/2000/svg">
<path d="M1.23273 113.39L1.23273 1.01855L89.3105 1.01855L89.3105 113.39L1.23273 113.39Z" fill="white" stroke="#003B71"/>
<path d="M17.5434 56.948L7.63098 56.948L7.63098 66.9329L17.5434 66.9329L17.5434 56.948Z" stroke="#003B71" stroke-miterlimit="10"/>
<path d="M17.5434 75.2749L7.63098 75.2749L7.63098 85.2598L17.5434 85.2598L17.5434 75.2749Z" stroke="#003B71" stroke-miterlimit="10"/>
<path d="M17.5434 93.6018L7.63098 93.6018L7.63098 103.587L17.5434 103.587L17.5434 93.6018Z" stroke="#003B71" stroke-miterlimit="10"/>
<path d="M7.63098 10.8516L32.5801 10.8516" stroke="#003B71" stroke-miterlimit="10"/>
<path d="M7.63098 14.7178L22.0247 14.7178" stroke="#003B71" stroke-miterlimit="10"/>
<path d="M7.63098 31.15L27.7822 31.15" stroke="#003B71" stroke-miterlimit="10"/>
<path d="M7.63098 35.9825L27.7822 35.9825" stroke="#003B71" stroke-miterlimit="10"/>
<path d="M24.6255 60.0317L71.0787 60.0317" stroke="#003B71" stroke-miterlimit="10"/>
<path d="M24.6255 63.8401L58.8249 63.8401" stroke="#003B71" stroke-miterlimit="10"/>
<path d="M24.6255 80.2627L46.8301 80.2627" stroke="#003B71" stroke-miterlimit="10"/>
<path d="M24.6255 96.6951L71.0787 96.6951" stroke="#003B71" stroke-miterlimit="10"/>
<path d="M24.6255 100.493L37.8964 100.493" stroke="#003B71" stroke-miterlimit="10"/>
<path d="M10.1086 61.9359L12.2964 64.1397L20.7599 55.6144" stroke="#003B71" stroke-miterlimit="10"/>
<path d="M81.2285 8.19568L44.7876 8.19568L44.7876 44.6366L81.2285 44.6366L81.2285 8.19568Z" fill="#92CCF0"/>
<path d="M73.0775 27.5096C70.2974 30.6164 68.025 32.7719 65.1604 35.5175L63.6011 36.9746C63.4319 37.0709 63.166 37.2034 62.8396 37.2034C62.4529 37.2034 62.1628 37.0348 61.9694 36.8903L61.8727 36.818C61.6309 36.5772 55.7445 31.0258 52.6018 27.5096C50.0273 24.6075 50.4503 20.9347 52.0216 18.5624C53.7622 15.9373 56.8444 14.8896 59.842 15.9132C61.0387 16.3106 61.8606 16.8765 62.8517 18.0326C63.8429 16.8524 64.6285 16.3226 65.8614 15.9132C68.859 14.8896 71.9413 15.9373 73.6818 18.5624C75.241 20.9347 75.6641 24.6075 73.0775 27.5096Z" fill="white"/>
</svg>
