<svg fill="none" height="165" viewBox="0 0 319 165" width="319" xmlns="http://www.w3.org/2000/svg"><g fill="#92ccf0"><path d="m360.448 26.1955-25.116-2.3298c-15.827-1.4682-31.867 4.9834-43.371 17.4453s-27.544 18.9134-43.371 17.4452c-15.828-1.4682-31.867 4.9833-43.371 17.4452-11.505 12.4619-27.544 18.9134-43.372 17.4452-15.827-1.4682-31.866 4.9833-43.371 17.4454-11.504 12.462-27.5435 18.913-43.371 17.445s-31.8669 4.983-43.3713 17.445l-18.2555 19.775 64.143 206.68 346.9698-139.562z" opacity=".2"/><path d="m370.518 55.2809-25.115-2.3298c-15.828-1.4682-31.867 4.9833-43.371 17.4452-11.505 12.4619-27.544 18.9134-43.372 17.4452-15.827-1.4682-31.867 4.9833-43.371 17.4455-11.504 12.462-27.544 18.913-43.371 17.445-15.828-1.468-31.867 4.983-43.371 17.445-11.505 12.462-27.544 18.914-43.3717 17.445-15.8275-1.468-31.8669 4.984-43.3712 17.446l-18.2555 19.775 64.143 206.68 346.9694-139.562z" opacity=".2"/><path d="m380.579 84.3691-25.115-2.3298c-15.828-1.4682-31.867 4.9834-43.372 17.4453-11.504 12.4614-27.543 18.9134-43.371 17.4454-15.827-1.468-31.867 4.983-43.371 17.445s-27.544 18.913-43.371 17.445c-15.828-1.468-31.867 4.984-43.371 17.445-11.505 12.462-27.544 18.914-43.3717 17.446-15.8275-1.469-31.8669 4.983-43.3713 17.445l-18.2555 19.775 64.143 206.68 346.9695-139.562z" opacity=".2"/></g></svg>