<svg width="40" height="40" viewBox="0 0 40 40" fill="none" xmlns="http://www.w3.org/2000/svg">
<g clip-path="url(#clip0_19259_3155)">
<circle cx="20" cy="20" r="20" fill="#F2F8FB"/>
<path d="M18.6635 25.4996C18.4033 25.4996 18.153 25.3995 17.9528 25.2093L15.2903 22.2165C14.8999 21.8261 14.8999 21.1955 15.2903 20.8051C15.6807 20.4148 16.2812 20.3747 16.7016 20.8051L18.6835 23.1173L23.318 18.7732C23.7183 18.3928 24.359 18.4128 24.7293 18.8232C25.0997 19.2336 25.0897 19.8642 24.6793 20.2346L19.3442 25.2394C19.154 25.4095 18.9037 25.4996 18.6635 25.4996Z" fill="#003B71"/>
<path d="M27 12H22.82C22.42 10.83 21.31 10 20 10C18.69 10 17.58 10.84 17.18 12.01H13C11.9 12.01 11.01 12.9 11.01 14L11 28.01C11 29.11 11.9 30 13 30H27C28.09 30 29 29.09 29 28V14C29 12.9 28.1 12 27 12ZM20 12C20.55 12 21 12.45 21 13C21 13.55 20.55 14 20 14C19.45 14 19 13.55 19 13C19 12.45 19.45 12 20 12ZM27 28H12.99L13 14H15V15C15 15.55 15.45 16 16 16H24C24.55 16 25 15.55 25 15V14H27V28Z" fill="#003B71"/>
</g>
<defs>
<clipPath id="clip0_19259_3155">
<rect width="40" height="40" fill="white"/>
</clipPath>
</defs>
</svg>
