<svg width="24" height="24" viewBox="0 0 24 24" fill="none" xmlns="http://www.w3.org/2000/svg">
<path d="M13 11C13 9.89543 12.1046 9 11 9C9.89543 9 9 9.89543 9 11C9 12.1046 9.89543 13 11 13C12.1046 13 13 12.1046 13 11Z" fill="#003B71"/>
<path d="M14 13C14.5523 13 15 13.4477 15 14C15 14.5523 14.5523 15 14 15C13.4477 15 13 14.5523 13 14C13 13.4477 13.4477 13 14 13Z" fill="#003B71"/>
<path fill-rule="evenodd" clip-rule="evenodd" d="M12 2C12.4142 2 12.75 2.33579 12.75 2.75V5.03971C14.1209 5.18573 15.3735 5.72748 16.3914 6.54853L18.013 4.92963C18.3059 4.63674 18.7808 4.63674 19.0737 4.92963C19.3665 5.22252 19.3665 5.6974 19.0737 5.99029L17.452 7.60926C18.2728 8.62707 18.8143 9.87944 18.9603 11.25H21.25C21.6643 11.25 22 11.5858 22 12C22 12.4142 21.6643 12.75 21.25 12.75H18.9603C18.8143 14.1207 18.2726 15.3732 17.4518 16.3911L19.0607 18C19.3536 18.2929 19.3536 18.7678 19.0607 19.0607C18.7678 19.3536 18.2929 19.3536 18 19.0607L16.3911 17.4518C15.3732 18.2726 14.1207 18.8143 12.75 18.9603V21.2501C12.75 21.6643 12.4142 22.0001 12 22.0001C11.5858 22.0001 11.25 21.6643 11.25 21.2501V18.9603C9.87908 18.8143 8.62642 18.2725 7.60846 17.4514L5.98126 19.0753C5.68836 19.3682 5.21349 19.3682 4.9206 19.0753C4.6277 18.7824 4.6277 18.3075 4.9206 18.0146L6.54788 16.3907C5.7272 15.3729 5.18569 14.1205 5.03971 12.75H2.75C2.33579 12.75 2 12.4142 2 12C2 11.5858 2.33579 11.25 2.75 11.25H5.03971C5.18571 9.87928 5.72736 8.62678 6.54824 7.6089L4.92633 5.987C4.63344 5.6941 4.63344 5.21923 4.92633 4.92633C5.21923 4.63344 5.6941 4.63344 5.987 4.92633L7.6089 6.54824C8.62678 5.72736 9.87928 5.18571 11.25 5.03971V2.75C11.25 2.33579 11.5858 2 12 2ZM17 12C17 14.7614 14.7614 17 12 17C9.23858 17 7 14.7614 7 12C7 9.23858 9.23858 7 12 7C14.7614 7 17 9.23858 17 12Z" fill="#003B71"/>
</svg>
