<svg width="40" height="40" viewBox="0 0 40 40" fill="none" xmlns="http://www.w3.org/2000/svg">
<circle cx="20" cy="20" r="20" fill="#F2F8FB"/>
<path fill-rule="evenodd" clip-rule="evenodd" d="M22.0757 12.274C20.2259 11.777 18.2592 11.9602 16.5331 12.7903C14.8069 13.6203 13.4358 15.0422 12.669 16.7974C11.9022 18.5526 11.7907 20.5246 12.3545 22.3551C12.9184 24.1856 14.1203 25.7531 15.7418 26.7726C17.3633 27.7921 19.2968 28.196 21.1908 27.9109C23.0849 27.6258 24.8138 26.6706 26.0633 25.2189C27.3128 23.7672 28 21.9154 28 20C28 19.4477 28.4477 19 29 19C29.5523 19 30 19.4477 30 20C30 22.3942 29.141 24.709 27.5791 26.5236C26.0172 28.3382 23.8561 29.5322 21.4885 29.8886C19.121 30.245 16.7041 29.7401 14.6773 28.4657C12.6504 27.1913 11.148 25.232 10.4432 22.9439C9.73831 20.6558 9.87781 18.1907 10.8363 15.9967C11.7948 13.8027 13.5086 12.0254 15.6663 10.9878C17.824 9.95026 20.2824 9.72127 22.5946 10.3425C24.5048 10.8557 26.2105 11.9209 27.5054 13.3918L27.5 11.9883C27.4978 11.436 27.9438 10.9866 28.4961 10.9844C29.0483 10.9822 29.4978 11.4282 29.4999 11.9805L29.5156 15.9805C29.5177 16.5327 29.0717 16.9822 28.5195 16.9844L24.5195 17C23.9672 17.0021 23.5178 16.5561 23.5156 16.0039C23.5134 15.4516 23.9594 15.0021 24.5117 15L26.2396 14.9932C25.1792 13.6717 23.7225 12.7164 22.0757 12.274ZM19 23H21V21H23V19H21V17H19V19H17V21H19V23Z" fill="#003B71"/>
</svg>
