<svg width="40" height="40" viewBox="0 0 40 40" fill="none" xmlns="http://www.w3.org/2000/svg">
<g clip-path="url(#clip0_19259_3097)">
<circle cx="20" cy="20" r="20" fill="#F2F8FB"/>
<path d="M26.3843 27.02L27.7043 25.71C28.0943 25.32 28.1043 24.69 27.7143 24.29C27.3243 23.9 26.6943 23.9 26.3043 24.28L24.9743 25.59L23.2343 23.85C24.2243 23.52 24.9543 22.59 24.9543 21.49C24.9543 20.11 23.8343 18.99 22.4543 18.99H19.9743C19.4243 18.99 18.9743 19.44 18.9743 19.99V25.99C18.9743 26.54 19.4243 26.99 19.9743 26.99C20.5243 26.99 20.9743 26.54 20.9743 25.99V24.42L23.5543 27L22.2543 28.28C21.8643 28.67 21.8543 29.3 22.2443 29.7C22.4443 29.9 22.6943 30 22.9543 30C23.2043 30 23.4643 29.9 23.6543 29.71L24.9543 28.42L26.2443 29.71C26.4443 29.9 26.6943 30 26.9543 30C27.2143 30 27.4643 29.9 27.6643 29.71C28.0543 29.32 28.0543 28.69 27.6643 28.3L26.3843 27.02ZM20.9743 21.01H22.4543C22.7343 21.01 22.9543 21.23 22.9543 21.51C22.9543 21.79 22.7343 22.01 22.4543 22.01H20.9743V21.01Z" fill="#003B71"/>
<path d="M27.978 17.29C27.978 17.22 27.968 16.57 27.538 16.16L21.698 10.41C21.428 10.14 21.068 10 20.688 10H13.448C12.648 10 11.998 10.65 11.998 11.45V27.55C11.998 28.35 12.648 29 13.448 29L16.978 29.01C17.528 29.01 17.978 28.57 17.978 28.01C17.978 27.46 17.538 27.01 16.978 27.01L13.988 27V11.99H19.978C19.978 12 19.968 12.01 19.968 12.02L19.978 16.01C19.978 17.11 20.878 18 21.978 18H25.978V20C25.978 20.55 26.428 21 26.978 21C27.528 21 27.978 20.55 27.978 20V17.29ZM21.978 13.48L24.538 16H21.988L21.978 13.48Z" fill="#003B71"/>
</g>
<defs>
<clipPath id="clip0_19259_3097">
<rect width="40" height="40" fill="white"/>
</clipPath>
</defs>
</svg>
