<svg width="40" height="40" viewBox="0 0 40 40" fill="none" xmlns="http://www.w3.org/2000/svg">
<g clip-path="url(#clip0_19259_3103)">
<circle cx="20" cy="20" r="20" fill="#F2F8FB"/>
<path fill-rule="evenodd" clip-rule="evenodd" d="M14 10C12.8954 10 12 10.8954 12 12V27C12 28.1046 12.8954 29 14 29H19C19.5523 29 20 28.5523 20 28C20 27.4477 19.5523 27 19 27H14V12H20V16C20 17.1046 20.8954 18 22 18H26C26 18.5523 26.4477 19 27 19C27.5523 19 28 18.5523 28 18V17.4142C28 16.8838 27.7893 16.3751 27.4142 16L22 10.5858C21.6249 10.2107 21.1162 10 20.5858 10H14ZM24.5858 16L22 13.4142V16H24.5858Z" fill="#003B71"/>
<path d="M27 24H24V23H27C27.55 23 28 22.55 28 22C28 21.45 27.55 21 27 21H26C26 20.45 25.55 20 25 20C24.45 20 24 20.45 24 21H23C22.45 21 22 21.45 22 22V25C22 25.55 22.45 26 23 26H26V27H23C22.45 27 22 27.45 22 28C22 28.55 22.45 29 23 29H24C24 29.55 24.45 30 25 30C25.55 30 26 29.55 26 29H27C27.55 29 28 28.55 28 28V25C28 24.45 27.55 24 27 24Z" fill="#003B71"/>
</g>
<defs>
<clipPath id="clip0_19259_3103">
<rect width="40" height="40" fill="white"/>
</clipPath>
</defs>
</svg>
