<svg width="40" height="40" viewBox="0 0 40 40" fill="none" xmlns="http://www.w3.org/2000/svg">
<circle cx="20" cy="20" r="20" fill="#F2F8FB"/>
<path fill-rule="evenodd" clip-rule="evenodd" d="M14 10C12.8954 10 12 10.8954 12 12V28C12 29.1046 12.8954 30 14 30H19C19.5523 30 20 29.5523 20 29C20 28.4477 19.5523 28 19 28H14V12H20V16C20 17.1046 20.8954 18 22 18H26V19C26 19.5523 26.4477 20 27 20C27.5523 20 28 19.5523 28 19V17.4142C28 16.8838 27.7893 16.3751 27.4142 16L22 10.5858C21.6249 10.2107 21.1162 10 20.5858 10H14ZM24.5858 16L22 13.4142V16H24.5858ZM30 30V29.25C30 27.6 28.65 27 27 27H25C23.35 27 22 27.6 22 29.25V30H30ZM26 26C27.1046 26 28 25.1046 28 24C28 22.8954 27.1046 22 26 22C24.8954 22 24 22.8954 24 24C24 25.1046 24.8954 26 26 26Z" fill="#003B71"/>
</svg>
