<svg width="293" height="272" viewBox="0 0 293 272" fill="none" xmlns="http://www.w3.org/2000/svg">
<path d="M214.604 158.301C215.785 157.638 205.259 155.938 204.388 155.255C196.742 149.307 195.685 141.848 194.255 133.642C192.183 121.395 194.753 109.107 194.898 96.985C192.162 95.9282 170.156 91.9496 169.265 92.1154C168.395 91.9496 146.471 95.9075 143.653 96.9436C143.777 109.087 146.409 121.375 144.254 133.6C142.803 141.889 141.726 149.266 134.079 155.213C133.209 155.897 122.682 157.575 123.864 158.238C135.509 164.807 141.891 200.138 168.602 200.324H169.907C196.721 200.159 202.938 164.849 214.604 158.301Z" fill="#B48C67"/>
<path d="M193.426 125.892C190.179 129.458 186.201 132.281 181.763 134.17C177.325 136.058 172.532 136.966 167.711 136.833C166.469 136.82 165.23 136.723 164.002 136.543C166.074 138.18 188.868 142.925 195.727 141.122C194.515 136.123 193.745 131.026 193.426 125.892Z" fill="#845C41"/>
<path d="M128.609 65.861C128.236 62.131 124.195 58.4426 120.693 60.2661C117.191 62.0896 117.046 66.9799 116.963 70.627C116.971 76.1912 118.677 81.6203 121.853 86.189C123.615 88.7792 127.282 94.6227 129.458 93.5452C133.603 91.473 134.867 77.548 133.851 73.528C133.271 71.145 131.323 69.6738 128.609 65.861Z" fill="#845C41"/>
<path d="M209.921 70.5233C210.729 66.8556 215.184 63.6645 218.438 65.8817C221.691 68.0989 221.276 72.9685 220.945 76.5534C220.299 82.088 217.978 87.2934 214.293 91.473C212.221 93.8146 207.932 99.2022 205.901 97.8968C202.067 95.4309 202.357 81.3194 203.829 77.4859C204.678 75.2686 206.792 74.046 209.921 70.5233Z" fill="#845C41"/>
<path d="M213.071 72.3675C210.999 109.356 190.07 138.221 165.411 136.812C140.752 135.403 123.428 104.3 125.563 67.3114C127.697 30.3231 125.107 1.25047 173.119 3.61275C221.131 5.97503 215.205 35.2963 213.071 72.3675Z" fill="#B48C67"/>
<path d="M158.737 60.1623C156.064 64.8868 148.377 63.1048 144.854 62.9804C140.477 62.5087 136.053 63.2245 132.048 65.0526C135.799 52.4124 151.133 60.8875 158.737 60.1623Z" fill="#D2D3D3"/>
<path d="M181.014 61.4057C183.086 66.3996 191.002 65.55 194.483 65.7987C198.863 65.8159 203.157 67.0112 206.916 69.2592C204.678 56.4117 188.433 63.0634 181.014 61.4057Z" fill="#D2D3D3"/>
<path d="M197.881 76.2216C195.436 72.5539 186.795 71.9322 183.376 74.6675" stroke="#221F1F" stroke-width="1.57" stroke-miterlimit="10"/>
<path d="M139.881 72.8648C142.741 69.5078 151.403 69.8808 154.387 72.9891" stroke="#221F1F" stroke-width="1.57" stroke-miterlimit="10"/>
<path d="M151.051 74.5519C151.153 72.7924 149.476 71.2643 147.305 71.1388C145.134 71.0132 143.292 72.3378 143.19 74.0972C143.088 75.8567 144.765 77.3849 146.936 77.5104C149.107 77.6359 150.949 76.3114 151.051 74.5519Z" fill="#221F1F"/>
<path d="M194.833 77.0711C194.935 75.3116 193.257 73.7834 191.087 73.6579C188.916 73.5323 187.073 74.8569 186.972 76.6164C186.87 78.3759 188.547 79.904 190.718 80.0295C192.889 80.1551 194.731 78.8305 194.833 77.0711Z" fill="#221F1F"/>
<path d="M160.479 101.005C164.209 101.233 172.912 102.538 176.082 101.005C176.393 107.698 160.209 107.159 160.479 101.005Z" fill="#845C41"/>
<path d="M158.966 113.21C159.755 114.817 160.921 116.211 162.364 117.271C163.807 118.332 165.485 119.029 167.255 119.302C169.027 119.248 170.758 118.753 172.292 117.863C173.825 116.973 175.114 115.716 176.041 114.205L158.966 113.21Z" fill="white"/>
<path d="M215.474 33.0582C205.403 -15.4928 112.156 -13.5242 125.065 61.8614H126.143C129.81 23.3812 126.308 21.6613 169.658 26.1579C171.585 26.3651 173.533 26.4894 175.46 26.5516C218.748 28.0021 213.713 27.7742 213.07 66.8347C213.07 66.8347 214.106 66.8347 214.148 66.8347C216.717 54.0701 217.443 44.5795 215.474 33.0582Z" fill="#D3D6D6"/>
<path d="M214.977 68.9069C214.862 68.4994 214.662 68.1207 214.391 67.7957C214.12 67.4708 213.783 67.2068 213.402 67.0212C205.217 64.4724 196.949 62.1516 188.267 62.5868C183.211 62.8562 178.051 62.8562 173.388 65.2806C172.256 66.0438 170.903 66.4127 169.54 66.3303C168.177 66.2479 166.878 65.7188 165.846 64.8247C161.473 61.8822 156.355 61.2813 151.341 60.411C142.762 58.9605 134.266 60.2867 125.832 61.8615C125.434 62.003 125.072 62.2277 124.768 62.5208C124.464 62.8138 124.226 63.1684 124.071 63.5607C123.615 64.6797 124.236 65.2392 125.459 65.7986C126.288 66.1716 126.827 67.7465 127.055 68.8862C127.904 73.1341 128.381 77.465 129.375 81.6922C129.659 83.4347 130.505 85.0365 131.785 86.2526C133.065 87.4688 134.708 88.2324 136.462 88.4268C141.484 89.0922 146.545 89.4176 151.61 89.4007C153.61 89.2866 155.537 88.6119 157.171 87.4539C158.806 86.296 160.081 84.7014 160.852 82.8526C162.427 79.7582 163.939 76.643 165.39 73.5071C165.525 72.595 165.997 71.7666 166.713 71.1853C167.429 70.6039 168.336 70.3117 169.257 70.3663C170.177 70.4209 171.044 70.8183 171.686 71.4803C172.328 72.1422 172.699 73.0205 172.725 73.9423C173.803 77.2301 174.943 80.4973 176.144 83.7437C176.689 85.6711 177.764 87.4064 179.249 88.7512C180.733 90.0961 182.565 90.9962 184.537 91.3486C189.568 91.9705 194.636 92.2406 199.705 92.1567C201.471 92.1667 203.193 91.5991 204.607 90.5405C206.021 89.4819 207.05 87.9901 207.538 86.2924C209.009 82.1481 210.004 78.0037 211.351 73.8594C211.703 72.7611 212.407 71.2485 213.278 70.9791C214.604 70.5232 215.371 70.088 214.977 68.9069ZM164.209 71.4142C162.943 74.9612 161.448 78.4221 159.733 81.7751C158.973 83.5256 157.745 85.0323 156.184 86.1293C154.623 87.2262 152.789 87.8707 150.885 87.9916C148.958 88.0952 147.01 87.9916 144.958 88.1159C142.575 87.8258 140.068 87.6186 137.602 87.1628C136.158 87.0456 134.786 86.485 133.673 85.5576C132.56 84.6302 131.761 83.3814 131.385 81.9823C130.367 77.5262 129.798 72.9793 129.686 68.4096C129.686 64.2652 131.344 62.566 135.468 62.3588C141.686 62.1392 147.912 62.2637 154.117 62.7318C156.599 62.9623 159.024 63.614 161.287 64.6589C164.975 66.3788 165.639 67.6636 164.209 71.4142ZM208.781 73.1341C208.124 77.6576 207.028 82.1062 205.507 86.4168C204.966 87.7456 204.035 88.879 202.836 89.667C201.637 90.4551 200.228 90.8608 198.793 90.8305C196.307 90.9963 193.799 90.8305 191.396 90.8305C189.323 90.5611 187.438 90.3332 185.511 90.0224C183.632 89.6725 181.887 88.8099 180.468 87.5299C179.049 86.2499 178.012 84.6025 177.471 82.7698C176.16 79.2258 175.087 75.5983 174.259 71.9116C173.347 68.0366 174.093 66.7518 177.926 65.695C180.294 64.9282 182.774 64.564 185.262 64.6175C191.452 64.8915 197.622 65.5002 203.746 66.441C207.807 67.1248 209.279 69.0934 208.781 73.1341Z" fill="black"/>
<path d="M278.054 189.943C270.367 183.892 234.394 161.305 209.341 153.949C207.103 153.12 182.403 187.352 172.954 196.159C171.943 197.108 170.61 197.635 169.224 197.635C167.838 197.635 166.504 197.108 165.494 196.159C155.962 187.352 131.365 153.12 129.106 153.949C104.075 161.284 79.3743 180.266 71.6243 186.316C70.7482 187.013 70.1049 187.96 69.7801 189.031L46.0951 252.874L49.307 282.03H312.1L302.838 256.211L279.899 192.781C279.599 191.664 278.954 190.67 278.054 189.943Z" fill="#28A09D"/>
<path d="M254.97 282.382V253.869" stroke="#1B827C" stroke-width="1.76" stroke-linecap="round" stroke-linejoin="round"/>
<path d="M30.2637 255.527L37.2055 282.465H71.7279L59.958 259.775C59.958 259.775 52.5396 253.766 44.6031 253.89C39.7821 253.977 34.9805 254.526 30.2637 255.527Z" fill="#B48C67"/>
<path d="M50.0115 190.709C47.9394 193.859 52.8297 202.521 52.7261 207.142C52.581 212.737 50.343 215.43 44.7896 212.923C43.1627 212.014 41.6167 210.967 40.1687 209.794C23.0111 196.076 23.3219 169.325 12.9611 170.133C5.50123 170.713 0.403682 189.86 0.528012 196.677C1.77132 242.265 30.2844 263.94 38.4695 268.975L39.3191 269.473C39.7088 269.7 40.1099 269.908 40.5209 270.094C42.6329 271.046 44.9356 271.5 47.2508 271.42C49.566 271.339 51.8317 270.728 53.8728 269.632C55.9139 268.536 57.6757 266.986 59.0219 265.101C60.3681 263.215 61.2626 261.046 61.6364 258.76C63.3254 253.291 64.5522 247.69 65.3041 242.016C65.6771 239.944 67.9151 226.123 66.2159 215.575C65.7807 212.322 56.083 181.467 50.0115 190.709Z" fill="#B48C67"/>
<path d="M193.986 263.277H243.034V232.982H193.986V263.277Z" fill="#D2D3D3" stroke="#A8A8AB" stroke-width="1.71" stroke-miterlimit="10" stroke-linecap="round"/>
<path d="M224.654 233.334V228.527C224.414 227.073 223.666 225.752 222.542 224.798C221.419 223.845 219.993 223.322 218.52 223.322C217.047 223.322 215.621 223.845 214.498 224.798C213.375 225.752 212.626 227.073 212.386 228.527V233.334H224.654Z" fill="#A8A8AB"/>
</svg>
