<svg width="40" height="40" viewBox="0 0 40 40" fill="none" xmlns="http://www.w3.org/2000/svg">
<g clip-path="url(#clip0_19259_3130)">
<circle cx="20" cy="20" r="20" fill="#F2F8FB"/>
<path d="M28.01 13H11.99C10.89 13 10 13.9006 10 15.0014V24.9986C10 26.0893 10.91 27 12 27H28C29.1 27 30 26.0994 30 24.9986V14.9914C30 13.8906 29.11 13 28.01 13ZM25.68 14.9914L20 20.9957L14.33 14.9914H25.68ZM28 25.0086L12 24.9986V15.4518L18.59 22.4067C18.98 22.797 19.49 22.9971 20 22.9971C20.52 22.9971 21.04 22.787 21.44 22.3867L28 15.4518V25.0086Z" fill="#003B71"/>
</g>
<defs>
<clipPath id="clip0_19259_3130">
<rect width="40" height="40" fill="white"/>
</clipPath>
</defs>
</svg>
