<svg width="24" height="24" viewBox="0 0 24 24" fill="none" xmlns="http://www.w3.org/2000/svg">
<path fill-rule="evenodd" clip-rule="evenodd" d="M8 12C9.65685 12 11 10.6569 11 9C11 7.34315 9.65685 6 8 6C6.34315 6 5 7.34315 5 9C5 10.6569 6.34315 12 8 12ZM12.8 18C13.47 18 14 17.38 14 16.63C14 14.51 12.57 13.21 10.75 13.02C10.64 13.01 10.52 13 10.41 13H5.59C5.48 13 5.36 13.01 5.25 13.02C3.43 13.21 2 14.51 2 16.63C2 17.38 2.53 18 3.2 18H12.8ZM20.8 18C21.47 18 22 17.38 22 16.63C22 14.51 20.57 13.21 18.75 13.02C18.64 13.01 18.52 13 18.41 13H13.59C13.55 13 13.5075 13.0025 13.465 13.005C13.4225 13.0075 13.38 13.01 13.34 13.01C14.36 13.83 15 15.09 15 16.5C15 17.03 14.91 17.53 14.74 18H20.8ZM19 9C19 10.6569 17.6569 12 16 12C14.3431 12 13 10.6569 13 9C13 7.34315 14.3431 6 16 6C17.6569 6 19 7.34315 19 9Z" fill="#003B71"/>
</svg>
