<svg width="24" height="24" viewBox="0 0 24 24" fill="none" xmlns="http://www.w3.org/2000/svg">
<path fill-rule="evenodd" clip-rule="evenodd" d="M7 7C7 9.76 9.25 12 12 12C14.75 12 16.99 9.76 17 7C17 4.24 14.75 2 12 2C9.24 2 7 4.25 7 7ZM9 7.01C9 5.35 10.35 4.01 12 4.01C13.65 4.01 14.99 5.36 15 7.01C15 8.67 13.66 10.01 12 10.01C10.34 10.01 9 8.66 9 7.01ZM13 21C13.5523 21 14 20.5523 14 20C14 19.4477 13.5523 19 13 19H4C4 16.79 5.79 15 8 15H9C9.83 15.63 10.87 16 12 16C13.13 16 14.17 15.63 15 15C15.5523 15 16 14.5523 16 14C16 13.4477 15.5523 13 15 13H14.23C14.16 13.08 14.09 13.15 14.01 13.22C13.8 13.42 13.56 13.58 13.29 13.7C12.9 13.89 12.46 14 12 14C11.12 14 10.32 13.61 9.77 13H8C7.81 13 7.61 13.01 7.43 13.03C4.38 13.32 2 15.88 2 19C2 20.1 2.9 21 4 21H13ZM19 14C19.5523 14 20 14.4477 20 15V17H22C22.5523 17 23 17.4477 23 18C23 18.5523 22.5523 19 22 19H20V21C20 21.5523 19.5523 22 19 22C18.4477 22 18 21.5523 18 21V19H16C15.4477 19 15 18.5523 15 18C15 17.4477 15.4477 17 16 17H18V15C18 14.4477 18.4477 14 19 14Z" fill="#003B71"/>
</svg>
