<svg width="24" height="24" viewBox="0 0 24 24" fill="none" xmlns="http://www.w3.org/2000/svg">
<path d="M4 6C3.47004 6.00155 2.96223 6.21276 2.5875 6.5875C2.21276 6.96223 2.00155 7.47004 2 8V18C2.00156 18.53 2.21277 19.0378 2.58751 19.4125C2.96224 19.7872 3.47005 19.9984 4 20H5V6H4ZM20 6H19V20H20C20.53 19.9985 21.0378 19.7872 21.4125 19.4125C21.7872 19.0378 21.9985 18.53 22 18V8C21.9985 7.47004 21.7873 6.96223 21.4125 6.58749C21.0378 6.21275 20.53 6.00154 20 6ZM15 4C14.9992 3.73503 14.8936 3.48113 14.7062 3.29377C14.5189 3.1064 14.265 3.00079 14 3H10C9.73503 3.00079 9.48113 3.1064 9.29377 3.29377C9.1064 3.48113 9.00079 3.73503 9 4V6H7V20H17V6H15V4ZM13.5 6H10.5V4.5H13.5V6Z" fill="#003B71"/>
</svg>
