<svg width="40" height="40" viewBox="0 0 40 40" fill="none" xmlns="http://www.w3.org/2000/svg">
<g clip-path="url(#clip0_19259_3271)">
<circle cx="20" cy="20" r="20" fill="#F2F8FB"/>
<path d="M23 15C22.03 15 21.3 15.23 20.8 15.48C21.04 13.94 22.39 12.75 24 12.75C24.41 12.75 24.75 12.41 24.75 12C24.75 11.59 24.41 11.25 24 11.25C21.89 11.25 20.09 12.64 19.48 14.55C19.38 13.76 19.04 12.58 17.98 11.51C16.15 9.68 14.03 10.03 14.03 10.03C14.03 10.03 13.66 12.17 15.49 13.99C15.95 14.45 16.44 14.78 16.9 15C13.36 15.03 11 16.85 11 21C11 24.14 13.06 30 17 30C18.39 30 19.39 29.36 20 29C20.61 29.36 21.61 30 23 30C26.94 30 29 24.14 29 21C29 16.81 26.59 15 23 15ZM23 28C21.9 28 21.11 27.59 20.61 27.22C20.25 26.95 19.75 26.95 19.39 27.22C18.89 27.59 18.1 28 17 28C14.83 28 13 23.7 13 21C13 18.58 14.05 17 17 17C17.72 17 18.9 17.26 19.54 17.42C19.85 17.49 20.16 17.49 20.46 17.42C21.13 17.26 22.34 17 23 17C25.95 17 27 18.58 27 21C27 23.7 25.17 28 23 28Z" fill="#003B71"/>
</g>
<defs>
<clipPath id="clip0_19259_3271">
<rect width="40" height="40" fill="white"/>
</clipPath>
</defs>
</svg>
