<svg width="40" height="40" viewBox="0 0 40 40" fill="none" xmlns="http://www.w3.org/2000/svg">
<g clip-path="url(#clip0_19259_3132)">
<circle cx="20" cy="20" r="20" fill="#F2F8FB"/>
<path d="M26.5 12H25.5V11C25.5 10.7348 25.3946 10.4804 25.2071 10.2929C25.0196 10.1054 24.7652 10 24.5 10C24.2348 10 23.9804 10.1054 23.7929 10.2929C23.6054 10.4804 23.5 10.7348 23.5 11V12H15.5V11C15.5 10.7348 15.3946 10.4804 15.2071 10.2929C15.0196 10.1054 14.7652 10 14.5 10C14.2348 10 13.9804 10.1054 13.7929 10.2929C13.6054 10.4804 13.5 10.7348 13.5 11V12H12.5C11.9696 12 11.4609 12.2107 11.0858 12.5858C10.7107 12.9609 10.5 13.4696 10.5 14V27C10.5 27.5304 10.7107 28.0391 11.0858 28.4142C11.4609 28.7893 11.9696 29 12.5 29H19.5C19.7652 29 20.0196 28.8946 20.2071 28.7071C20.3946 28.5196 20.5 28.2652 20.5 28C20.5 27.7348 20.3946 27.4804 20.2071 27.2929C20.0196 27.1054 19.7652 27 19.5 27H12.5V18H26.5V20C26.5 20.2652 26.6054 20.5196 26.7929 20.7071C26.9804 20.8946 27.2348 21 27.5 21C27.7652 21 28.0196 20.8946 28.2071 20.7071C28.3946 20.5196 28.5 20.2652 28.5 20V14C28.5 13.4696 28.2893 12.9609 27.9142 12.5858C27.5391 12.2107 27.0304 12 26.5 12ZM26.5 16H12.5V14H26.5V16Z" fill="#003B71"/>
<path d="M29.5 26C29.5 26.2652 29.3946 26.5196 29.2071 26.7071C29.0196 26.8946 28.7652 27 28.5 27H26.5V29C26.5 29.2652 26.3946 29.5196 26.2071 29.7071C26.0196 29.8946 25.7652 30 25.5 30C25.2348 30 24.9804 29.8946 24.7929 29.7071C24.6054 29.5196 24.5 29.2652 24.5 29V27H22.5C22.2348 27 21.9804 26.8946 21.7929 26.7071C21.6054 26.5196 21.5 26.2652 21.5 26C21.5 25.7348 21.6054 25.4804 21.7929 25.2929C21.9804 25.1054 22.2348 25 22.5 25H24.5V23C24.5 22.7348 24.6054 22.4804 24.7929 22.2929C24.9804 22.1054 25.2348 22 25.5 22C25.7652 22 26.0196 22.1054 26.2071 22.2929C26.3946 22.4804 26.5 22.7348 26.5 23V25H28.5C28.7652 25 29.0196 25.1054 29.2071 25.2929C29.3946 25.4804 29.5 25.7348 29.5 26Z" fill="#003B71"/>
</g>
<defs>
<clipPath id="clip0_19259_3132">
<rect width="40" height="40" fill="white"/>
</clipPath>
</defs>
</svg>
