<svg width="40" height="40" viewBox="0 0 40 40" fill="none" xmlns="http://www.w3.org/2000/svg">
<g clip-path="url(#clip0_19259_3278)">
<circle cx="20" cy="20" r="20" fill="#F2F8FB"/>
<path d="M27 12H26V11C26 10.4477 25.5523 10 25 10C24.4477 10 24 10.4477 24 11V12H16V11C16 10.4477 15.5523 10 15 10C14.4477 10 14 10.4477 14 11V12H13C11.91 12 11 12.91 11 14V28C11 29.09 11.9 30 13 30H27C28.1 30 29 29.09 29 28V14C29 12.91 28.1 12 27 12ZM13 14H27V16H13V14ZM27 28H13V18H20H27V28Z" fill="#003B71"/>
<path d="M18.8822 26.5009C18.6222 26.5009 18.3722 26.4009 18.1722 26.2109L15.5022 23.5209C15.1122 23.1309 15.1122 22.5009 15.5022 22.1109C15.8922 21.7209 16.4922 21.6809 16.9122 22.1109L18.8922 24.1109L23.1122 19.7709C23.5122 19.3909 24.1522 19.4109 24.5222 19.8209C24.8922 20.2309 24.8822 20.8609 24.4722 21.2309L19.5522 26.2309C19.3722 26.4109 19.1222 26.5009 18.8822 26.5009Z" fill="#003B71"/>
</g>
<defs>
<clipPath id="clip0_19259_3278">
<rect width="40" height="40" fill="white"/>
</clipPath>
</defs>
</svg>
