<svg width="50" height="50" viewBox="0 0 50 50" fill="none" xmlns="http://www.w3.org/2000/svg">
<circle cx="25" cy="25" r="25" fill="#F0F7FA"/>
<path fill-rule="evenodd" clip-rule="evenodd" d="M20 20C20 22.76 22.25 25 25 25C27.75 25 29.99 22.76 30 20C30 17.24 27.75 15 25 15C22.24 15 20 17.25 20 20ZM22 20.01C22 18.35 23.35 17.01 25 17.01C26.65 17.01 27.99 18.36 28 20.01C28 21.67 26.66 23.01 25 23.01C23.34 23.01 22 21.66 22 20.01ZM29 26C29.19 26 29.39 26.01 29.57 26.03C32.62 26.32 35 28.88 35 32C35 33.1 34.1 34 33 34H17C15.9 34 15 33.1 15 32C15 28.88 17.38 26.32 20.43 26.03C20.61 26.01 20.81 26 21 26H22.77C23.32 26.61 24.12 27 25 27C25.46 27 25.9 26.89 26.29 26.7C26.56 26.58 26.8 26.42 27.01 26.22C27.09 26.15 27.16 26.08 27.23 26H29ZM21 28C18.79 28 17 29.79 17 32H33C33 29.79 31.21 28 29 28H28C27.17 28.63 26.13 29 25 29C23.87 29 22.83 28.63 22 28H21Z" fill="#003B71"/>
</svg>
