<svg width="72" height="72" viewBox="0 0 72 72" fill="none" xmlns="http://www.w3.org/2000/svg">
<circle cx="36" cy="36" r="36" fill="#E6F2F7"/>
<path d="M47.73 56.25H24.27C23.9496 56.262 23.63 56.2105 23.3296 56.0985C23.0292 55.9864 22.754 55.816 22.5197 55.5971C22.2855 55.3782 22.0969 55.1151 21.9648 54.823C21.8327 54.5308 21.7597 54.2155 21.75 53.895V22.605C21.7597 22.2845 21.8327 21.9691 21.9648 21.677C22.0969 21.3849 22.2855 21.1218 22.5197 20.9029C22.754 20.684 23.0292 20.5136 23.3296 20.4015C23.63 20.2895 23.9496 20.238 24.27 20.25H48C48.5627 20.2172 49.1154 20.4087 49.5372 20.7826C49.9589 21.1566 50.2152 21.6824 50.25 22.245V53.895C50.2403 54.2155 50.1673 54.5308 50.0352 54.823C49.9031 55.1151 49.7145 55.3782 49.4803 55.5971C49.246 55.816 48.9708 55.9864 48.6704 56.0985C48.37 56.2105 48.0504 56.262 47.73 56.25V56.25Z" fill="white"/>
<path d="M44.25 18.75H27.75V23.25H44.25V18.75Z" fill="#92CCF0"/>
<path fill-rule="evenodd" clip-rule="evenodd" d="M48 19.5H45V18.75C45 18.5511 44.921 18.3603 44.7803 18.2197C44.6397 18.079 44.4489 18 44.25 18H39C39 17.2044 38.6839 16.4413 38.1213 15.8787C37.5587 15.3161 36.7956 15 36 15C35.2044 15 34.4413 15.3161 33.8787 15.8787C33.3161 16.4413 33 17.2044 33 18H27.75C27.5511 18 27.3603 18.079 27.2197 18.2197C27.079 18.3603 27 18.5511 27 18.75V19.5H24.27C23.4251 19.4798 22.6066 19.7952 21.9938 20.3772C21.3809 20.9591 21.0236 21.7602 21 22.605V53.895C21.0236 54.7398 21.3809 55.5409 21.9938 56.1228C22.6066 56.7048 23.4251 57.0202 24.27 57H47.73C48.5749 57.0202 49.3934 56.7048 50.0062 56.1228C50.6191 55.5409 50.9764 54.7398 51 53.895V22.245C50.965 21.4836 50.6295 20.7671 50.0672 20.2526C49.5049 19.7381 48.7615 19.4674 48 19.5ZM36 16.5C36.3978 16.5 36.7794 16.658 37.0607 16.9393C37.342 17.2206 37.5 17.6022 37.5 18H34.5C34.5 17.6022 34.658 17.2206 34.9393 16.9393C35.2206 16.658 35.6022 16.5 36 16.5ZM49.5 53.895C49.4767 54.342 49.2775 54.7617 48.9459 55.0624C48.6143 55.3631 48.1772 55.5204 47.73 55.5H24.27C23.8228 55.5204 23.3857 55.3631 23.0541 55.0624C22.7225 54.7617 22.5233 54.342 22.5 53.895V22.605C22.5233 22.158 22.7225 21.7383 23.0541 21.4376C23.3857 21.1369 23.8228 20.9796 24.27 21H27V23.25C27 23.4489 27.079 23.6397 27.2197 23.7803C27.3603 23.921 27.5511 24 27.75 24H44.25C44.4489 24 44.6397 23.921 44.7803 23.7803C44.921 23.6397 45 23.4489 45 23.25V21H48C48.3631 20.9706 48.7233 21.0844 49.0035 21.317C49.2838 21.5497 49.462 21.8827 49.5 22.245V53.895ZM34.5 34.5C34.3049 34.4981 34.1176 34.4232 33.975 34.29L32.475 32.79C32.4047 32.7203 32.3489 32.6373 32.3108 32.5459C32.2728 32.4545 32.2532 32.3565 32.2532 32.2575C32.2532 32.1585 32.2728 32.0605 32.3108 31.9691C32.3489 31.8777 32.4047 31.7947 32.475 31.725C32.5447 31.6547 32.6277 31.5989 32.7191 31.5608C32.8105 31.5228 32.9085 31.5032 33.0075 31.5032C33.1065 31.5032 33.2045 31.5228 33.2959 31.5608C33.3873 31.5989 33.4703 31.6547 33.54 31.725L34.515 32.67L38.49 28.71C38.559 28.6411 38.6408 28.5864 38.7309 28.5491C38.821 28.5117 38.9175 28.4925 39.015 28.4925C39.1125 28.4925 39.2091 28.5117 39.2991 28.5491C39.3892 28.5864 39.4711 28.6411 39.54 28.71C39.609 28.7789 39.6636 28.8608 39.701 28.9509C39.7383 29.041 39.7575 29.1375 39.7575 29.235C39.7575 29.3325 39.7383 29.429 39.701 29.5191C39.6636 29.6092 39.609 29.6911 39.54 29.76L35.04 34.26C34.9727 34.3367 34.8896 34.3979 34.7964 34.4393C34.7031 34.4807 34.602 34.5015 34.5 34.5ZM28.5 19.5H43.5V22.5H28.5V19.5ZM27 39.75C27 39.3358 27.3358 39 27.75 39H44.25C44.6642 39 45 39.3358 45 39.75C45 40.1642 44.6642 40.5 44.25 40.5H27.75C27.3358 40.5 27 40.1642 27 39.75ZM27.75 43.5C27.3358 43.5 27 43.8358 27 44.25C27 44.6642 27.3358 45 27.75 45H44.25C44.6642 45 45 44.6642 45 44.25C45 43.8358 44.6642 43.5 44.25 43.5H27.75ZM27 48.75C27 48.3358 27.3358 48 27.75 48H44.25C44.6642 48 45 48.3358 45 48.75C45 49.1642 44.6642 49.5 44.25 49.5H27.75C27.3358 49.5 27 49.1642 27 48.75Z" fill="#003B71"/>
</svg>
