<svg width="40" height="40" viewBox="0 0 40 40" fill="none" xmlns="http://www.w3.org/2000/svg">
<circle cx="20" cy="20" r="20" fill="#F2F8FB"/>
<path fill-rule="evenodd" clip-rule="evenodd" d="M12 12C12 10.8954 12.8954 10 14 10H20.5858C21.1162 10 21.6249 10.2107 22 10.5858L27.4142 16C27.7893 16.3751 28 16.8838 28 17.4142V28C28 29.1046 27.1046 30 26 30H14C12.8954 30 12 29.1046 12 28V12ZM14 12H20V16C20 17.1046 20.8954 18 22 18H26V28H14V12ZM22 13.4142L24.5858 16H22V13.4142ZM19 22V20H21V22H23V24H21V26H19V24H17V22H19Z" fill="#003B71"/>
</svg>
