<svg width="24" height="24" viewBox="0 0 24 24" fill="none" xmlns="http://www.w3.org/2000/svg">
<path fill-rule="evenodd" clip-rule="evenodd" d="M6 2C4.89543 2 4 2.89543 4 4V20C4 21.1046 4.89543 22 6 22H11C11.5523 22 12 21.5523 12 21C12 20.4477 11.5523 20 11 20H6V4H12V8C12 9.10457 12.8954 10 14 10H18V11C18 11.5523 18.4477 12 19 12C19.5523 12 20 11.5523 20 11V9.41421C20 8.88378 19.7893 8.37507 19.4142 8L14 2.58579C13.6249 2.21071 13.1162 2 12.5858 2H6ZM16.5858 8L14 5.41421V8H16.5858ZM22 22V21.25C22 19.6 20.65 19 19 19H17C15.35 19 14 19.6 14 21.25V22H22ZM18 18C19.1046 18 20 17.1046 20 16C20 14.8954 19.1046 14 18 14C16.8954 14 16 14.8954 16 16C16 17.1046 16.8954 18 18 18Z" fill="#003B71"/>
</svg>
