<svg width="48" height="48" viewBox="0 0 48 48" fill="none" xmlns="http://www.w3.org/2000/svg">
<path d="M24 44.25C35.1838 44.25 44.25 35.1838 44.25 24C44.25 12.8162 35.1838 3.75 24 3.75C12.8162 3.75 3.75 12.8162 3.75 24C3.75 35.1838 12.8162 44.25 24 44.25Z" fill="white"/>
<path fill-rule="evenodd" clip-rule="evenodd" d="M24 3C12.405 3 3 12.405 3 24C3 35.595 12.405 45 24 45C35.595 45 45 35.595 45 24C45 12.405 35.595 3 24 3ZM24 43.5C13.245 43.5 4.5 34.755 4.5 24C4.5 13.245 13.245 4.5 24 4.5C34.755 4.5 43.5 13.245 43.5 24C43.5 34.755 34.755 43.5 24 43.5ZM24 31.5C22.755 31.5 21.75 32.505 21.75 33.75C21.75 34.995 22.755 36 24 36C25.245 36 26.25 34.995 26.25 33.75C26.25 32.505 25.245 31.5 24 31.5ZM24 34.5C23.58 34.5 23.25 34.17 23.25 33.75C23.25 33.33 23.58 33 24 33C24.42 33 24.75 33.33 24.75 33.75C24.75 34.17 24.42 34.5 24 34.5ZM21.75 14.25C21.75 13.005 22.755 12 24 12C25.245 12 26.25 13.005 26.25 14.25V27.75C26.25 28.995 25.245 30 24 30C22.755 30 21.75 28.995 21.75 27.75V14.25ZM24 28.5C24.42 28.5 24.75 28.17 24.75 27.75V14.25C24.75 13.83 24.42 13.5 24 13.5C23.58 13.5 23.25 13.83 23.25 14.25V27.75C23.25 28.17 23.58 28.5 24 28.5Z" fill="#B63125"/>
<path fill-rule="evenodd" clip-rule="evenodd" d="M23.25 14.25C23.25 13.83 23.58 13.5 24 13.5C24.42 13.5 24.75 13.83 24.75 14.25V27.75C24.75 28.17 24.42 28.5 24 28.5C23.58 28.5 23.25 28.17 23.25 27.75V14.25ZM24.75 33.75C24.75 34.1642 24.4142 34.5 24 34.5C23.5858 34.5 23.25 34.1642 23.25 33.75C23.25 33.3358 23.5858 33 24 33C24.4142 33 24.75 33.3358 24.75 33.75Z" fill="#F89D9D"/>
</svg>
