<svg width="40" height="40" viewBox="0 0 40 40" fill="none" xmlns="http://www.w3.org/2000/svg">
<g clip-path="url(#clip0_19259_3239)">
<circle cx="20" cy="20" r="20" fill="#F2F8FB"/>
<path d="M12 16.5C12.8284 16.5 13.5 15.8284 13.5 15C13.5 14.1716 12.8284 13.5 12 13.5C11.1716 13.5 10.5 14.1716 10.5 15C10.5 15.8284 11.1716 16.5 12 16.5Z" fill="#003B71"/>
<path d="M12 26.5C12.8284 26.5 13.5 25.8284 13.5 25C13.5 24.1716 12.8284 23.5 12 23.5C11.1716 23.5 10.5 24.1716 10.5 25C10.5 25.8284 11.1716 26.5 12 26.5Z" fill="#003B71"/>
<path d="M12 21.5C12.8284 21.5 13.5 20.8284 13.5 20C13.5 19.1716 12.8284 18.5 12 18.5C11.1716 18.5 10.5 19.1716 10.5 20C10.5 20.8284 11.1716 21.5 12 21.5Z" fill="#003B71"/>
<path d="M16 16H28.5C29.05 16 29.5 15.55 29.5 15C29.5 14.45 29.05 14 28.5 14H16C15.45 14 15 14.45 15 15C15 15.55 15.45 16 16 16Z" fill="#003B71"/>
<path d="M28.5 19H16C15.45 19 15 19.45 15 20C15 20.55 15.45 21 16 21H28.5C29.05 21 29.5 20.55 29.5 20C29.5 19.45 29.05 19 28.5 19Z" fill="#003B71"/>
<path d="M28.5 24H16C15.45 24 15 24.45 15 25C15 25.55 15.45 26 16 26H28.5C29.05 26 29.5 25.55 29.5 25C29.5 24.45 29.05 24 28.5 24Z" fill="#003B71"/>
</g>
<defs>
<clipPath id="clip0_19259_3239">
<rect width="40" height="40" fill="white"/>
</clipPath>
</defs>
</svg>
