<svg width="24" height="24" viewBox="0 0 24 24" fill="none" xmlns="http://www.w3.org/2000/svg">
<path d="M16.57 13.53C16.39 13.51 16.19 13.5 16 13.5H14.23C14.16 13.58 14.09 13.65 14.01 13.72C13.8 13.92 13.56 14.08 13.29 14.2C12.9 14.39 12.46 14.5 12 14.5C11.12 14.5 10.32 14.11 9.77 13.5H8C7.81 13.5 7.61 13.51 7.43 13.53C4.38 13.82 2 16.38 2 19.5C2 20.6 2.9 21.5 4 21.5H20C21.1 21.5 22 20.6 22 19.5C22 16.38 19.62 13.82 16.57 13.53ZM4 19.5C4 17.29 5.79 15.5 8 15.5H9C9.83 16.13 10.87 16.5 12 16.5C13.13 16.5 14.17 16.13 15 15.5H16C18.21 15.5 20 17.29 20 19.5H4Z" fill="#003B71"/>
<path d="M12 12.5C9.25 12.5 7 10.26 7 7.5C7 4.75 9.24 2.5 12 2.5C14.75 2.5 17 4.74 17 7.5C16.99 10.26 14.75 12.5 12 12.5ZM12 4.51C10.35 4.51 9 5.85 9 7.51C9 9.16 10.34 10.51 12 10.51C13.66 10.51 15 9.17 15 7.51C14.99 5.86 13.65 4.51 12 4.51Z" fill="#003B71"/>
</svg>
