<svg width="48" height="35" viewBox="0 0 48 35" fill="none" xmlns="http://www.w3.org/2000/svg">
<g clip-path="url(#clip0_11095_111575)">
<path d="M20.8146 25.2747L17.9802 31.06C17.9802 31.06 16.6936 32.1566 16.6936 32.9966V35.007" stroke="#53382B" stroke-width="1.90194" stroke-miterlimit="10"/>
<path d="M15.0099 35.007V33.0036C15.0099 33.0036 15.462 31.9492 16.1899 31.5661C16.7535 31.3057 17.3586 31.137 17.9802 31.067" stroke="#53382B" stroke-width="1.90194" stroke-miterlimit="10"/>
<path d="M25.5274 25.2747L22.6784 31.06C22.6784 31.06 21.3917 32.1566 21.3917 32.9966V35.007" stroke="#53382B" stroke-width="1.90194" stroke-miterlimit="10"/>
<path d="M19.7374 35.007V33.0036C19.7374 33.0036 20.1933 31.9492 20.9175 31.5661C21.4811 31.3057 22.0862 31.137 22.7078 31.067" stroke="#53382B" stroke-width="1.90194" stroke-miterlimit="10"/>
<path d="M45.7538 27.4679C45.7538 27.4679 47.1875 28.2235 47.6177 28.8738C48.3529 29.9668 47.9522 31.4852 47.0626 32.4659C46.1729 33.4465 44.8973 34.0123 43.6621 34.5536C38.2801 30.5679 32.5122 25.7667 28.1927 20.7441C29.722 20.6492 28.8801 19.0078 30.3175 19.3804C34.626 20.5016 45.7538 27.4679 45.7538 27.4679Z" fill="#F05773"/>
<path d="M9.23093 22.8846C12.5395 26.5786 18.2302 27.7561 23.2188 26.7719C28.2074 25.7878 32.6041 22.9549 36.3943 19.7143C33.5195 20.1958 30.6337 18.5896 28.7809 16.435C26.9281 14.2805 25.8694 11.6198 24.6342 9.09266C23.399 6.56555 21.8733 4.02789 19.436 2.49546C18.321 1.80522 17.0642 1.35146 15.7502 1.16472C14.4363 0.977986 13.0958 1.06262 11.819 1.41292C9.13903 2.16507 6.03265 4.47778 6.09514 7.31419C6.1172 8.34753 6.37453 9.36681 6.40027 10.4002C6.499 11.7526 6.4781 13.1106 6.33777 14.4597C5.8856 17.4789 7.17227 20.5965 9.23093 22.8846Z" fill="#D8E8F2"/>
<path d="M33.0122 18.1362L32.9717 18.1186C31.6897 17.58 30.5568 16.7629 29.6632 15.7321C27.6707 13.4194 26.4906 10.8114 25.1598 8.11909C23.9026 5.56386 22.3476 3.0016 19.8624 1.44105C18.7234 0.744379 17.4427 0.286714 16.1049 0.0982858C14.7672 -0.0901424 13.4028 -0.00503992 12.102 0.34796C10.7335 0.724516 9.49329 1.43986 8.5067 2.42167C7.65015 3.27927 6.54362 4.70275 6.41127 5.9048C7.05828 5.85208 8.13908 4.75195 8.71257 4.40751C9.49835 3.89469 10.3915 3.55166 11.33 3.40228C13.1975 3.13516 15.2525 3.72915 16.4142 5.13857C16.9721 5.89135 17.3922 6.72923 17.6567 7.61649C18.392 9.67614 19.0133 11.785 20.1308 13.6795C21.4413 15.8309 23.3136 17.6202 25.5646 18.8721C27.8155 20.1241 30.3678 20.7958 32.9717 20.8214C33.7696 20.8527 34.5657 20.7259 35.3098 20.4489C35.6798 20.3097 36.0119 20.0919 36.2807 19.8117C36.5495 19.5316 36.748 19.1965 36.8611 18.8321C36.7398 19.2714 33.5232 18.3154 33.0122 18.1362Z" fill="#F05773"/>
<path d="M10.422 8.15424C9.77025 8.15424 9.24192 7.64911 9.24192 7.026C9.24192 6.4029 9.77025 5.89777 10.422 5.89777C11.0737 5.89777 11.602 6.4029 11.602 7.026C11.602 7.64911 11.0737 8.15424 10.422 8.15424Z" fill="#231F20"/>
<path d="M6.65021 7.026C6.0951 7.31421 -1.89362e-05 9.77454 -1.89362e-05 9.77454H6.02894C6.02894 9.77454 6.53625 10.0065 7.02518 8.96263C7.51411 7.91874 6.65021 7.026 6.65021 7.026Z" fill="#E3A725"/>
</g>
<defs>
<clipPath id="clip0_11095_111575">
<rect width="48" height="35" fill="white" transform="matrix(-1 0 0 1 48 0)"/>
</clipPath>
</defs>
</svg>
