<svg width="48" height="48" viewBox="0 0 48 48" fill="none" xmlns="http://www.w3.org/2000/svg">
<path d="M19.26 14.25L18.06 17.25L19.035 19.68C20.464 18.5927 22.2094 18.0027 24.005 18C25.8005 17.9973 27.5477 18.582 28.98 19.665L29.94 17.25L28.74 14.25H19.26Z" fill="white"/>
<path d="M30.15 20.76L31.095 18.42C31.3463 18.725 31.4888 19.105 31.5 19.5C31.4978 19.8262 31.39 20.1429 31.1925 20.4025C30.9951 20.6621 30.7187 20.8508 30.405 20.94L30.15 20.76Z" fill="white"/>
<path d="M16.8075 20.4025C16.6101 20.1429 16.5022 19.8262 16.5 19.5C16.5016 19.3097 16.5409 19.1216 16.6156 18.9465C16.6902 18.7715 16.7988 18.6129 16.935 18.48L17.865 20.775L17.595 20.94C17.2813 20.8508 17.0049 20.6622 16.8075 20.4025Z" fill="white"/>
<path d="M29.61 29.25H32.25C34.4369 29.2538 36.5331 30.1243 38.0794 31.6706C39.6257 33.217 40.4962 35.3131 40.5 37.5V39C40.5004 39.2956 40.4425 39.5883 40.3295 39.8615C40.2166 40.1347 40.0509 40.3829 39.8419 40.5919C39.6329 40.8009 39.3847 40.9666 39.1115 41.0795C38.8383 41.1925 38.5456 41.2504 38.25 41.25H36V37.5C36 37.3011 35.921 37.1103 35.7803 36.9697C35.6397 36.829 35.4489 36.75 35.25 36.75C35.0511 36.75 34.8603 36.829 34.7197 36.9697C34.579 37.1103 34.5 37.3011 34.5 37.5V41.25H13.5V37.5C13.5 37.3011 13.421 37.1103 13.2803 36.9697C13.1397 36.829 12.9489 36.75 12.75 36.75C12.5511 36.75 12.3603 36.829 12.2197 36.9697C12.079 37.1103 12 37.3011 12 37.5V41.25H9.75C9.45442 41.2504 9.16166 41.1925 8.8885 41.0795C8.61534 40.9666 8.36714 40.8009 8.15813 40.5919C7.94912 40.3829 7.7834 40.1347 7.67047 39.8615C7.55754 39.5883 7.49961 39.2956 7.5 39V37.5C7.50384 35.3131 8.37427 33.217 9.92061 31.6706C11.467 30.1243 13.5631 29.2538 15.75 29.25H18.39C19.1103 30.0038 19.9836 30.5946 20.9513 30.9827C21.9189 31.3708 23.25 31.5 24 31.5C24.75 31.5 26.0811 31.3708 27.0487 30.9827C28.0164 30.5946 28.8897 30.0038 29.61 29.25Z" fill="white"/>
<path d="M18.7501 6.75H29.2501C29.5457 6.74961 29.8384 6.80754 30.1116 6.92047C30.3848 7.0334 30.633 7.19912 30.842 7.40813C31.051 7.61714 31.2167 7.86534 31.3296 8.1385C31.4426 8.41166 31.5005 8.70442 31.5001 9V17.34L31.4851 17.325C31.4999 17.2031 31.4844 17.0795 31.4401 16.965L29.9401 13.215C29.8858 13.0767 29.7907 12.9582 29.6675 12.8751C29.5442 12.7921 29.3987 12.7484 29.2501 12.75H18.7501C18.6015 12.7484 18.456 12.7921 18.3327 12.8751C18.2095 12.9582 18.1144 13.0767 18.0601 13.215L16.5601 16.965C16.5221 17.0425 16.5017 17.1272 16.5001 17.2133V9C16.4997 8.70442 16.5576 8.41166 16.6706 8.1385C16.7835 7.86534 16.9492 7.61714 17.1582 7.40813C17.3672 7.19912 17.6154 7.0334 17.8886 6.92047C18.1618 6.80754 18.4545 6.74961 18.7501 6.75Z" fill="#92CCF0"/>
<path d="M16.5001 17.235C16.5 17.2278 16.5 17.2205 16.5001 17.2133V17.235Z" fill="#92CCF0"/>
<path d="M20.9945 20.2088C21.9322 19.7399 22.9667 19.4972 24.0151 19.5C25.0635 19.4971 26.098 19.7399 27.0357 20.2087C27.9735 20.6776 28.7883 21.3596 29.4151 22.2C29.4752 22.26 29.5801 22.395 29.5801 22.395C29.153 23.5267 28.3917 24.5016 27.3972 25.1901C26.4028 25.8787 25.2224 26.2484 24.0128 26.25C22.8032 26.2517 21.6218 25.8852 20.6255 25.1993C19.6292 24.5134 18.8652 23.5405 18.4351 22.41C18.4351 22.41 18.5551 22.275 18.6151 22.2C19.2419 21.3596 20.0568 20.6776 20.9945 20.2088Z" fill="#92CCF0"/>
<path fill-rule="evenodd" clip-rule="evenodd" d="M18.75 5.25H29.25C30.2445 5.25036 31.1981 5.64557 31.9012 6.34875C32.6044 7.05193 32.9996 8.00555 33 9V19.5C32.9985 20.077 32.8308 20.6414 32.5169 21.1255C32.203 21.6097 31.7562 21.9932 31.23 22.23C30.7969 23.8156 29.8546 25.2148 28.5481 26.2122C27.2417 27.2096 25.6437 27.7499 24 27.7499C22.3563 27.7499 20.7583 27.2096 19.4519 26.2122C18.1454 25.2148 17.2031 23.8156 16.77 22.23C16.2438 21.9932 15.797 21.6097 15.4831 21.1255C15.1692 20.6414 15.0015 20.077 15 19.5V9C15.0004 8.00555 15.3956 7.05193 16.0987 6.34875C16.8019 5.64557 17.7555 5.25036 18.75 5.25ZM16.8075 20.4025C17.0049 20.6622 17.2813 20.8508 17.595 20.94L17.865 20.775L16.935 18.48C16.7988 18.6129 16.6902 18.7715 16.6156 18.9465C16.5409 19.1216 16.5016 19.3097 16.5 19.5C16.5022 19.8262 16.6101 20.1429 16.8075 20.4025ZM20.6174 25.1996C21.6118 25.8858 22.7919 26.2522 24 26.25C25.2114 26.2494 26.3939 25.8804 27.3906 25.1918C28.3872 24.5033 29.1508 23.5278 29.58 22.395C29.58 22.395 29.475 22.26 29.415 22.2C28.7863 21.3617 27.971 20.6813 27.0337 20.2126C26.0964 19.744 25.0629 19.5 24.015 19.5C22.9671 19.5 21.9336 19.744 20.9963 20.2126C20.059 20.6813 19.2437 21.3617 18.615 22.2C18.555 22.275 18.435 22.41 18.435 22.41C18.8617 23.5403 19.6231 24.5135 20.6174 25.1996ZM24.005 18C25.8006 17.9973 27.5478 18.582 28.98 19.665L29.94 17.25L28.74 14.25H19.26L18.06 17.25L19.035 19.68C20.464 18.5927 22.2094 18.0027 24.005 18ZM30.15 20.76L30.405 20.94C30.7187 20.8508 30.9951 20.6622 31.1925 20.4025C31.3899 20.1429 31.4978 19.8262 31.5 19.5C31.4888 19.105 31.3463 18.725 31.095 18.42L30.15 20.76ZM31.485 17.325L31.5 17.34V9C31.5004 8.70441 31.4425 8.41166 31.3295 8.1385C31.2166 7.86533 31.0509 7.61714 30.8419 7.40813C30.6329 7.19912 30.3847 7.0334 30.1115 6.92047C29.8383 6.80753 29.5456 6.74961 29.25 6.75H18.75C18.4544 6.74961 18.1617 6.80753 17.8885 6.92047C17.6153 7.0334 17.3671 7.19912 17.1581 7.40813C16.9491 7.61714 16.7834 7.86533 16.6705 8.1385C16.5575 8.41166 16.4996 8.70441 16.5 9V17.2133C16.5016 17.1272 16.522 17.0425 16.56 16.965L18.06 13.215C18.1143 13.0767 18.2094 12.9582 18.3326 12.8751C18.4559 12.7921 18.6014 12.7484 18.75 12.75H29.25C29.3986 12.7484 29.5441 12.7921 29.6674 12.8751C29.7906 12.9582 29.8857 13.0767 29.94 13.215L31.44 16.965C31.4843 17.0795 31.4998 17.2031 31.485 17.325Z" fill="#003B71"/>
<path fill-rule="evenodd" clip-rule="evenodd" d="M29.25 27.75H32.25C34.8343 27.755 37.3114 28.7838 39.1388 30.6112C40.9662 32.4386 41.995 34.9157 42 37.5V39C41.9996 39.9945 41.6044 40.9481 40.9012 41.6513C40.1981 42.3544 39.2444 42.7496 38.25 42.75H9.75C8.75555 42.7496 7.80193 42.3544 7.09875 41.6513C6.39557 40.9481 6.00036 39.9945 6 39V37.5C6.00501 34.9157 7.03384 32.4386 8.86124 30.6112C10.6886 28.7838 13.1657 27.755 15.75 27.75H18.75C18.8739 27.7496 18.9961 27.7795 19.1059 27.837C19.2156 27.8945 19.3097 27.9779 19.38 28.08C19.9431 28.7429 20.6556 29.2626 21.4588 29.5964C22.262 29.9302 23.25 30 24 30C24.75 30 25.7408 29.9246 26.5458 29.5911C27.3508 29.2577 28.0663 28.7401 28.635 28.08C28.7022 27.9784 28.7935 27.895 28.9009 27.8374C29.0082 27.7798 29.1282 27.7498 29.25 27.75ZM40.3295 39.8615C40.4425 39.5883 40.5004 39.2956 40.5 39V37.5C40.4962 35.3131 39.6257 33.217 38.0794 31.6706C36.533 30.1243 34.4369 29.2538 32.25 29.25H29.61C28.8897 30.0038 28.0164 30.5946 27.0487 30.9827C26.0811 31.3708 25.0737 31.5 24 31.5C22.9263 31.5 21.9189 31.3708 20.9513 30.9827C19.9836 30.5946 19.1103 30.0038 18.39 29.25H15.75C13.5631 29.2538 11.467 30.1243 9.92061 31.6706C8.37427 33.217 7.50384 35.3131 7.5 37.5V39C7.49961 39.2956 7.55753 39.5883 7.67047 39.8615C7.7834 40.1347 7.94912 40.3829 8.15813 40.5919C8.36714 40.8009 8.61533 40.9666 8.8885 41.0795C9.16166 41.1925 9.45441 41.2504 9.75 41.25H12V37.5C12 37.3011 12.079 37.1103 12.2197 36.9697C12.3603 36.829 12.5511 36.75 12.75 36.75C12.9489 36.75 13.1397 36.829 13.2803 36.9697C13.421 37.1103 13.5 37.3011 13.5 37.5V41.25H34.5V37.5C34.5 37.3011 34.579 37.1103 34.7197 36.9697C34.8603 36.829 35.0511 36.75 35.25 36.75C35.4489 36.75 35.6397 36.829 35.7803 36.9697C35.921 37.1103 36 37.3011 36 37.5V41.25H38.25C38.5456 41.2504 38.8383 41.1925 39.1115 41.0795C39.3847 40.9666 39.6329 40.8009 39.8419 40.5919C40.0509 40.3829 40.2166 40.1347 40.3295 39.8615Z" fill="#003B71"/>
</svg>
