<svg width="24" height="24" viewBox="0 0 24 24" fill="none" xmlns="http://www.w3.org/2000/svg">
<path d="M4.2943 9.29512L9.29638 4.28303C9.49647 4.09295 9.75658 3.99291 10.0067 3.99291C10.2668 3.99291 10.5269 4.09295 10.717 4.28303C11.1071 4.67319 11.1071 5.30345 10.717 5.69362L10.3268 6.07377L17.7199 13.4368C18.1101 13.827 18.1101 14.4573 17.7199 14.8474L16.7895 15.7378L20.7812 19.7195C21.0713 20.0096 21.0713 20.4898 20.7812 20.7799C20.6411 20.92 20.451 21 20.261 21C20.0709 21 19.8708 20.92 19.7307 20.7799L15.7391 16.7982L14.8587 17.6986C14.4685 18.0888 13.8383 18.0888 13.4481 17.6986L6.08505 10.3155L5.70489 10.7057C5.51481 10.9058 5.2547 10.9958 4.99459 10.9958C4.74449 10.9958 4.49438 10.9058 4.2943 10.7057C3.90414 10.3155 3.90414 9.68528 4.2943 9.29512ZM14.1384 15.5577L15.559 14.1371L8.90622 7.49437L7.49563 8.90496L14.1384 15.5577Z" fill="#003B71"/>
<path d="M4.70446 7.70446L7.70571 4.70321C8.09588 4.31305 8.09588 3.68278 7.70571 3.29262C7.31555 2.90246 6.68529 2.90246 6.29513 3.29262L3.29387 6.29387C2.90371 6.68404 2.90371 7.3143 3.29387 7.70446C3.67403 8.09462 4.3143 8.09462 4.70446 7.70446Z" fill="#003B71"/>
</svg>
