<svg width="24" height="24" viewBox="0 0 24 24" fill="none" xmlns="http://www.w3.org/2000/svg">
<path d="M21.96 12.2C21.39 7.56 18.19 3.51 13 3.05V3C13 2.45 12.55 2 12 2C11.45 2 11 2.45 11 3V3.05C5.81 3.51 2.61 7.56 2.04 12.2C2.03 12.34 2.01 12.62 2 12.94C2 12.98 2 13.01 2.01 13.05C2.01 13.07 2.01 13.09 2.02 13.11C2.05 13.32 2.13 13.53 2.29 13.69C2.52 13.92 2.83 14.02 3.15 13.98C3.49 13.94 3.75 13.67 4.03 13.5C4.83 13 5.85 12.92 6.76 13.06C7.27 13.14 7.91 13.33 8.29 13.71C8.49 13.91 8.77 14.01 9.06 13.99C9.39 13.97 9.59 13.79 9.84 13.61C10.04 13.46 10.27 13.35 10.5 13.26C10.66 13.2 10.83 13.15 11 13.11V19C11 20.65 12.35 22 14 22C15.65 22 17 20.65 17 19C17 18.45 16.55 18 16 18C15.45 18 15 18.45 15 19C15 19.55 14.55 20 14 20C13.45 20 13 19.55 13 19V13.11C13.17 13.15 13.34 13.2 13.5 13.26C13.73 13.35 13.96 13.46 14.16 13.61C14.41 13.79 14.61 13.97 14.94 13.99C15.23 14.01 15.51 13.91 15.71 13.71C16.09 13.33 16.73 13.14 17.24 13.06C18.15 12.92 19.17 13 19.97 13.5C20.25 13.67 20.51 13.94 20.85 13.98C21.17 14.02 21.48 13.92 21.71 13.69C21.87 13.53 21.95 13.32 21.98 13.11C21.99 13.09 21.99 13.07 21.99 13.05C22 13.01 22 12.98 22 12.94C21.99 12.62 21.97 12.34 21.96 12.2ZM4 13.14H3.98C3.99 13.13 4 13.13 4 13.13V13.14ZM18 11C16.61 11 15.61 11.41 15 11.77C14.39 11.41 13.39 11 12 11C10.61 11 9.61 11.41 9 11.77C8.39 11.41 7.39 11 6 11C5.27 11 4.65 11.11 4.14 11.26C5.37 7.75 7.59 5 12 5C16.41 5 18.63 7.75 19.86 11.26C19.35 11.11 18.73 11 18 11ZM20 13.14V13.13C20 13.13 20.01 13.13 20.02 13.14H20Z" fill="#003B71"/>
</svg>
